Coordinates
version=1
nRows=26
nColumns=24
inDegrees=yes

Units are S.I. units (second, meters, Newtons, ...)
Angles are in degrees.

endheader
time	pelvis_tilt	pelvis_list	pelvis_rotation	pelvis_tx	pelvis_ty	pelvis_tz	hip_flexion_r	hip_adduction_r	hip_rotation_r	knee_angle_r	ankle_angle_r	subtalar_angle_r	mtp_angle_r	hip_flexion_l	hip_adduction_l	hip_rotation_l	knee_angle_l	ankle_angle_l	subtalar_angle_l	mtp_angle_l	lumbar_extension	lumbar_bending	lumbar_rotation
      0.89200000	     -2.61806480	     -2.85132101	      0.17262093	     -0.16332212	      1.04976001	      0.31826085	     -4.67132961	      7.82052110	     -0.24544844	    -17.02281404	     12.48526499	    -11.65840268	     -3.27564229	     24.04638389	     -0.68190399	     -5.03723874	     -1.36532840	      7.17496431	      8.83899418	     -0.47743288	      4.68988342	      6.30800527	     -0.65595655
      0.89616667	     -2.62147010	     -2.87599901	      0.15260484	     -0.15728740	      1.04926841	      0.31810465	     -4.65863430	      7.78137360	     -0.53506642	    -17.74200595	     12.38098786	    -11.28228260	     -3.27466039	     24.04838538	     -0.66747191	     -4.78148272	     -1.76557105	      7.20871882	      8.98600017	     -0.47907211	      4.57045128	      6.32386314	     -0.63300364
      0.90033333	     -2.53051343	     -2.89185259	      0.20782214	     -0.15113758	      1.04892663	      0.31784266	     -4.75290024	      7.73216848	     -0.85697112	    -18.46347885	     12.42108248	    -10.53354999	     -3.26062039	     23.93706004	     -0.61644823	     -4.45174089	     -2.18901082	      7.23616661	      9.01647798	     -0.48236398	      4.64435352	      6.38186147	     -0.57445162
      0.90450000	     -2.49374856	     -2.90154526	      0.14694641	     -0.14507480	      1.04856401	      0.31783789	     -4.73736930	      7.67235186	     -1.06059097	    -19.27803351	     12.28357914	    -10.34870544	     -3.25357174	     23.88278359	     -0.61766013	     -4.34472636	     -2.65933602	      7.16383268	      8.97301350	     -0.48214306	      4.57101392	      6.32470118	     -0.55640988
      0.90866667	     -2.44668454	     -2.90105588	      0.10940985	     -0.13894663	      1.04824087	      0.31772092	     -4.70648196	      7.58704261	     -1.33994484	    -20.13748812	     12.06445714	    -10.00817475	     -3.23900221	     23.79967790	     -0.58931776	     -4.18781155	     -3.13345853	      7.05749673	      8.90076976	     -0.47906624	      4.52200543	      6.31854143	     -0.52581595
      0.91283333	     -2.34606990	     -2.88075704	      0.12291155	     -0.13274739	      1.04801901	      0.31737552	     -4.71657398	      7.45495502	     -1.69804201	    -21.02927357	     11.90076133	     -9.13554609	     -3.17125467	     23.61701698	     -0.50107651	     -3.76487141	     -3.54826332	      6.81283745	      8.47002601	     -0.46083058	      4.57116147	      6.35115712	     -0.42775991
      0.91700000	     -2.29420338	     -2.85897767	      0.06854575	     -0.12660526	      1.04776094	      0.31732218	     -4.62514173	      7.33559356	     -1.97641452	    -22.01897225	     11.71317013	     -8.98383084	     -3.15189676	     23.51408704	     -0.46599232	     -3.73377386	     -4.05196051	      6.70086751	      8.33605018	     -0.45486692	      4.48724839	      6.25812519	     -0.40758430
      0.92116667	     -2.23490542	     -2.82401662	      0.01387193	     -0.12042032	      1.04755399	      0.31715927	     -4.50794348	      7.17813580	     -2.30917105	    -23.05844658	     11.36086274	     -8.62439094	     -3.12162850	     23.37725297	     -0.40531138	     -3.65426760	     -4.51958996	      6.49272063	      8.14284468	     -0.44655028	      4.41951333	      6.21464601	     -0.37690007
      0.92533333	     -2.12220666	     -2.76374212	      0.02549028	     -0.11420692	      1.04744259	      0.31659027	     -4.41992972	      6.94969207	     -2.74877407	    -24.15831309	     11.17040468	     -7.58619517	     -2.91042316	     23.11735797	     -0.24779979	     -3.05839423	     -4.85420447	      5.93115274	      6.90711651	     -0.37619251	      4.45494713	      6.17587952	     -0.21593214
      0.92950000	     -2.06727322	     -2.69991184	     -0.04897031	     -0.10801226	      1.04729354	      0.31647854	     -4.22571610	      6.74586767	     -3.06442152	    -25.33207109	     10.79582278	     -7.41995489	     -2.87961295	     22.96220846	     -0.17236657	     -3.06766317	     -5.30751285	      5.78175123	      6.83181311	     -0.36469779	      4.37189870	      6.10425766	     -0.21066332
      0.93366667	     -1.96398799	     -2.62348051	     -0.06340286	     -0.10181070	      1.04723579	      0.31599759	     -4.05294989	      6.48806308	     -3.47254901	    -26.53733877	     10.22859470	     -6.66286097	     -2.58539862	     22.70929667	     -0.02121308	     -2.68530863	     -5.64926233	      5.15313211	      5.76270441	     -0.25858888	      4.40009874	      6.02900805	     -0.10238681
      0.93783333	     -1.89102562	     -2.56975266	     -0.10771826	     -0.09572752	      1.04714653	      0.31583326	     -3.79961510	      6.28083320	     -3.79040083	    -27.81583604	      9.61410896	     -6.32406117	     -2.50367251	     22.54102983	      0.05100021	     -2.70514224	     -6.10933445	      4.91857338	      5.59674369	     -0.22863123	      4.30262569	      5.91285875	     -0.08828695
      0.94200000	     -1.80532510	     -2.43756633	     -0.21706831	     -0.08945120	      1.04717251	      0.31553505	     -3.53762342	      5.94409102	     -4.08451461	    -29.14181006	      8.85486140	     -5.78701416	     -2.31178421	     22.26879961	      0.21045621	     -2.51414397	     -6.41074893	      4.44030440	      5.03029151	     -0.16291901	      4.33542415	      5.83371954	     -0.03983805
      0.94616667	     -1.73374955	     -2.32184152	     -0.27544469	     -0.08330045	      1.04715445	      0.31517666	     -3.21196599	      5.62374026	     -4.42758506	    -30.54063047	      8.14225707	     -5.33984467	     -2.09336220	     22.04769560	      0.36808277	     -2.36318896	     -6.76992787	      4.02157671	      4.38523061	     -0.08847929	      4.29338944	      5.69560349	      0.01054101
      0.95033333	     -1.66138223	     -2.18174600	     -0.31481078	     -0.07712158	      1.04715672	      0.31487982	     -2.85664996	      5.27907988	     -4.79610284	    -32.01429483	      7.74261669	     -5.19370031	     -2.04314940	     21.84312438	      0.53973298	     -2.38208419	     -7.18063176	      3.87571286	      4.26728588	     -0.07149571	      4.17608931	      5.55306076	      0.02086080
      0.95450000	     -1.58213914	     -2.03788582	     -0.42076156	     -0.07098865	      1.04723470	      0.31451357	     -2.47263642	      4.90302060	     -5.02899394	    -33.47268632	      6.52341421	     -4.58640645	     -1.80594039	     21.58514479	      0.71277464	     -2.17993525	     -7.48446658	      3.30244679	      3.40782679	     -0.00001319	      4.27100063	      5.40903572	      0.07523834
      0.95866667	     -1.52639731	     -1.93281912	     -0.42220034	     -0.06509518	      1.04720767	      0.31416739	     -2.01274509	      4.59050596	     -5.35157912	    -35.02964897	      5.80017774	     -4.30267663	     -1.67104227	     21.43946087	      0.85533271	     -2.12466722	     -7.94455588	      3.04291828	      2.98921029	      0.04166579	      4.09166261	      5.12251587	      0.10849310
      0.96283333	     -1.45164271	     -1.73664876	     -0.52433528	     -0.05896865	      1.04731997	      0.31375479	     -1.55961551	      4.13946980	     -5.57829683	    -36.58956624	      4.69712939	     -3.91492988	     -1.47991087	     21.19009045	      1.08315919	     -1.99574204	     -8.26979394	      2.67812034	      2.38007701	      0.09828131	      4.09397026	      4.94454442	      0.13113756
      0.96700000	     -1.39751731	     -1.55643679	     -0.59113436	     -0.05296582	      1.04738801	      0.31332346	     -1.04773025	      3.70930710	     -5.80604148	    -38.19821077	      3.72207989	     -3.64925488	     -1.27419059	     20.99128891	      1.30062926	     -1.85217750	     -8.64011981	      2.36731325	      1.79034334	      0.15876381	      4.05554697	      4.72526481	      0.15242798
      0.97116667	     -1.33163618	     -1.36619506	     -0.65500034	     -0.04701337	      1.04748500	      0.31292317	     -0.52244068	      3.27113540	     -5.99653857	    -39.82833458	      2.78081575	     -3.42091245	     -1.10889685	     20.78762099	      1.51964974	     -1.74819421	     -9.02347113	      2.14184666	      1.37248198	      0.20738085	      3.99516662	      4.49584424	      0.16008784
      0.97533333	     -1.26950979	     -1.15915745	     -0.73153144	     -0.04106653	      1.04761299	      0.31251980	      0.03132252	      2.81266829	     -6.13730773	    -41.46813343	      1.72915855	     -3.21079441	     -0.94649694	     20.58424796	      1.75299877	     -1.66701235	     -9.40293818	      1.93891658	      0.94970803	      0.25429770	      3.95770285	      4.25799584	      0.16103324
      0.97950000	     -1.27683011	     -0.91981792	     -0.80119027	     -0.03501065	      1.04766005	      0.31187544	      0.67371311	      2.29174411	     -6.29483796	    -43.11081469	      0.56661034	     -3.26980112	     -0.42713204	     20.42080328	      2.05154009	     -1.39388170	     -9.71245833	      1.51660064	      0.00573642	      0.40095618	      4.15936628	      4.16068216	      0.15203788
      0.98366667	     -1.18441595	     -0.69863738	     -0.84156749	     -0.02914398	      1.04785389	      0.31149068	      1.22900272	      1.82916997	     -6.38921297	    -44.74136019	     -0.45936209	     -3.01311350	     -0.22039925	     20.21383057	      2.29556572	     -1.47503480	    -10.15168338	      1.49984614	     -0.17836251	      0.46485159	      4.07055218	      3.84884084	      0.13430036
      0.98783333	     -1.12515340	     -0.47472398	     -0.90643995	     -0.02331325	      1.04802165	      0.31109959	      1.84448446	      1.36577070	     -6.42296189	    -46.37075242	     -1.53447778	     -2.92943923	     -0.00539508	     20.02849099	      2.53648930	     -1.49511011	    -10.55972022	      1.43694239	     -0.41617879	      0.52946557	      4.02366326	      3.57544616	      0.10902344
      0.99200000	     -1.07153523	     -0.24806982	     -0.96468325	     -0.01754366	      1.04819444	      0.31070983	      2.48333283	      0.90950456	     -6.41886140	    -47.98796219	     -2.54600468	     -2.91535227	      0.19018779	     19.85143118	      2.77959534	     -1.51228559	    -10.96933506	      1.40352999	     -0.63085408	      0.58886697	      3.97686254	      3.29322166	      0.08132287
      0.99616667	     -0.99957579	     -0.03473116	     -1.01265213	     -0.01193925	      1.04838465	      0.31032368	      3.12721316	      0.47954190	     -6.36985004	    -49.61456104	     -3.26732374	     -2.90663410	      0.29030532	     19.65526335	      3.00885505	     -1.42038809	    -11.36634538	      1.39300459	     -0.68156358	      0.62190270	      3.81929424	      3.01650650	      0.05423831
